<svg width="32" height="32" viewBox="0 0 32 32" fill="none" xmlns="http://www.w3.org/2000/svg">
<path d="M20 2.66675H8.00004C7.2928 2.66675 6.61452 2.9477 6.11442 3.4478C5.61433 3.94789 5.33337 4.62617 5.33337 5.33341V26.6667C5.33337 27.374 5.61433 28.0523 6.11442 28.5524C6.61452 29.0525 7.2928 29.3334 8.00004 29.3334H24C24.7073 29.3334 25.3856 29.0525 25.8857 28.5524C26.3858 28.0523 26.6667 27.374 26.6667 26.6667V9.33341L20 2.66675Z" stroke="white" stroke-width="2.66667" stroke-linecap="round" stroke-linejoin="round"/>
<path d="M18.6666 2.66675V8.00008C18.6666 8.70733 18.9476 9.3856 19.4477 9.8857C19.9478 10.3858 20.626 10.6667 21.3333 10.6667H26.6666" stroke="white" stroke-width="2.66667" stroke-linecap="round" stroke-linejoin="round"/>
</svg>
