<svg width="32" height="32" viewBox="0 0 32 32" fill="none" xmlns="http://www.w3.org/2000/svg">
<path d="M28 4H3.99996C3.26358 4 2.66663 4.59695 2.66663 5.33333V9.33333C2.66663 10.0697 3.26358 10.6667 3.99996 10.6667H28C28.7363 10.6667 29.3333 10.0697 29.3333 9.33333V5.33333C29.3333 4.59695 28.7363 4 28 4Z" stroke="white" stroke-width="2.66667" stroke-linecap="round" stroke-linejoin="round"/>
<path d="M5.33337 10.6667V25.3334C5.33337 26.0407 5.61433 26.7189 6.11442 27.219C6.61452 27.7191 7.2928 28.0001 8.00004 28.0001H10.6667" stroke="white" stroke-width="2.66667" stroke-linecap="round" stroke-linejoin="round"/>
<path d="M26.6667 10.6667V25.3334C26.6667 26.0407 26.3858 26.7189 25.8857 27.219C25.3856 27.7191 24.7073 28.0001 24 28.0001H21.3334" stroke="white" stroke-width="2.66667" stroke-linecap="round" stroke-linejoin="round"/>
<path d="M12 20L16 16L20 20" stroke="white" stroke-width="2.66667" stroke-linecap="round" stroke-linejoin="round"/>
<path d="M16 16V28" stroke="white" stroke-width="2.66667" stroke-linecap="round" stroke-linejoin="round"/>
</svg>
