<svg width="32" height="32" viewBox="0 0 32 32" fill="none" xmlns="http://www.w3.org/2000/svg">
<path d="M25.3333 4H6.66667C5.19391 4 4 5.19391 4 6.66667V25.3333C4 26.8061 5.19391 28 6.66667 28H25.3333C26.8061 28 28 26.8061 28 25.3333V6.66667C28 5.19391 26.8061 4 25.3333 4Z" stroke="white" stroke-width="2.66667" stroke-linecap="round" stroke-linejoin="round"/>
<path d="M12 14.6666C13.4728 14.6666 14.6667 13.4727 14.6667 11.9999C14.6667 10.5272 13.4728 9.33325 12 9.33325C10.5273 9.33325 9.33337 10.5272 9.33337 11.9999C9.33337 13.4727 10.5273 14.6666 12 14.6666Z" stroke="white" stroke-width="2.66667" stroke-linecap="round" stroke-linejoin="round"/>
<path d="M28 19.9999L23.8853 15.8853C23.3853 15.3853 22.7071 15.1045 22 15.1045C21.2929 15.1045 20.6147 15.3853 20.1147 15.8853L8 27.9999" stroke="white" stroke-width="2.66667" stroke-linecap="round" stroke-linejoin="round"/>
</svg>
