<svg width="32" height="32" viewBox="0 0 32 32" fill="none" xmlns="http://www.w3.org/2000/svg">
<path d="M16 6.66675H8.00004C7.2928 6.66675 6.61452 6.9477 6.11442 7.4478C5.61433 7.94789 5.33337 8.62617 5.33337 9.33341V13.3334" stroke="white" stroke-width="2.66667" stroke-linecap="round" stroke-linejoin="round"/>
<path d="M12 10.6667L16 6.66675L12 2.66675" stroke="white" stroke-width="2.66667" stroke-linecap="round" stroke-linejoin="round"/>
<path d="M5.33337 18.6667V24.0001C5.33337 24.7073 5.61433 25.3856 6.11442 25.8857C6.61452 26.3858 7.2928 26.6667 8.00004 26.6667H24C24.7073 26.6667 25.3856 26.3858 25.8857 25.8857C26.3858 25.3856 26.6667 24.7073 26.6667 24.0001V9.33341C26.6667 8.62617 26.3858 7.94789 25.8857 7.4478C25.3856 6.9477 24.7073 6.66675 24 6.66675H21.3334" stroke="white" stroke-width="2.66667" stroke-linecap="round" stroke-linejoin="round"/>
</svg>
