<svg width="56" height="53" viewBox="0 0 56 53" fill="none" xmlns="http://www.w3.org/2000/svg">
<path d="M48.74 52.34C47.15 52.34 45.55 51.77 44.34 50.62L23.01 30.44C20.58 28.14 20.58 24.41 23.01 22.11L44.56 1.72C46.99 -0.580001 50.93 -0.580001 53.36 1.72C55.79 4.02 55.79 7.75 53.36 10.04L36.21 26.27L53.14 42.29C55.57 44.59 55.57 48.32 53.14 50.61C51.93 51.76 50.33 52.33 48.74 52.33" fill="#A5D9E8"/>
<path d="M15.9001 21.2C14.3101 21.2 12.7201 20.63 11.5001 19.48L1.82006 10.32C-0.609941 8.02 -0.609941 4.3 1.82006 2C4.25006 -0.299999 8.19006 -0.299999 10.6201 2L20.3001 11.16C22.7301 13.46 22.7301 17.19 20.3001 19.48C19.0901 20.63 17.4901 21.2 15.9001 21.2Z" fill="#E9600B"/>
<path d="M6.22006 52.28C4.63006 52.28 3.03006 51.71 1.82006 50.56C-0.609941 48.26 -0.609941 44.53 1.82006 42.24L11.5001 33.08C13.9301 30.78 17.8701 30.78 20.3001 33.08C22.7301 35.38 22.7301 39.11 20.3001 41.4L10.6201 50.56C9.41006 51.71 7.81006 52.28 6.22006 52.28Z" fill="white"/>
</svg>
